<svg xmlns="http://www.w3.org/2000/svg" width="977.61" height="1157.61" viewBox="0 0 977.61 1157.61"><defs><style>.cls-1,.cls-3{fill:#e6e6e6;}.cls-1,.cls-2,.cls-3,.cls-4{stroke:#000;}.cls-1,.cls-2,.cls-3,.cls-4,.cls-5{stroke-miterlimit:10;}.cls-1,.cls-2{stroke-width:8px;}.cls-2{fill:#fff;}.cls-3{stroke-width:7px;}.cls-4{fill:lime;stroke-width:5px;}.cls-5{fill:#b3b3b3;stroke:#333;stroke-width:6px;}</style></defs><title>Asset 2</title><g id="Layer_2" data-name="Layer 2"><g id="Layer_1-2" data-name="Layer 1"><circle class="cls-1" cx="488.81" cy="488.81" r="484.81"/><polygon class="cls-2" points="234 903.61 234 1133.61 254 1153.61 714 1153.61 734 1133.61 734 903.61 234 903.61"/><rect class="cls-3" x="264" y="903.61" width="440" height="220"/><rect class="cls-4" x="264" y="903.61" width="30" height="220"/><polyline class="cls-4" points="274 1103.61 264 1093.61 294 1123.61"/><polyline class="cls-4" points="284 1073.61 264 1053.61 294 1083.61"/><line class="cls-4" x1="264" y1="1013.61" x2="294" y2="1043.61"/><line class="cls-4" x1="264" y1="973.61" x2="294" y2="1003.61"/><line class="cls-4" x1="264" y1="933.61" x2="294" y2="963.61"/><rect class="cls-4" x="674" y="903.61" width="30" height="220"/><polyline class="cls-4" points="694 1103.61 704 1093.61 674 1123.61"/><polyline class="cls-4" points="684 1073.61 704 1053.61 674 1083.61"/><line class="cls-4" x1="704" y1="1013.61" x2="674" y2="1043.61"/><line class="cls-4" x1="704" y1="973.61" x2="674" y2="1003.61"/><line class="cls-4" x1="704" y1="933.61" x2="674" y2="963.61"/><path class="cls-5" d="M724,873.61c80-50,220-170,220-380,0-226.94-187-460-450-460-259.24,0-460,220-460,440,0,220.83,110,330,210,400Z"/></g></g></svg>