<svg xmlns="http://www.w3.org/2000/svg" viewBox="0 0 486.5 387"><defs><style>.cls-1,.cls-4,.cls-5{fill:#fff;}.cls-1,.cls-10,.cls-11,.cls-2,.cls-3,.cls-4,.cls-5,.cls-6,.cls-7,.cls-8,.cls-9{stroke:#000;}.cls-1,.cls-2,.cls-3,.cls-6,.cls-7,.cls-8,.cls-9{stroke-linejoin:round;}.cls-1,.cls-2,.cls-3,.cls-5,.cls-6,.cls-7,.cls-8,.cls-9{stroke-width:7px;}.cls-2{fill:#e6e6e6;}.cls-3{fill:lime;}.cls-10,.cls-11,.cls-4,.cls-5{stroke-miterlimit:10;}.cls-10,.cls-11,.cls-4{stroke-width:6px;}.cls-6{fill:#1a1a1a;}.cls-7{fill:#b3b3b3;}.cls-8{fill:#999;}.cls-9{fill:gray;}.cls-10{fill:aqua;}.cls-11{fill:#fbb03b;}</style></defs><title>Asset 1</title><g id="Layer_2" data-name="Layer 2"><g id="Layer_1-2" data-name="Layer 1"><polygon class="cls-1" points="283.5 103.5 33.5 103.5 13.5 123.5 3.5 133.5 3.5 143.5 3.5 243.5 3.5 253.5 33.5 283.5 43.5 283.5 283.5 283.5 283.5 103.5"/><circle class="cls-2" cx="223.5" cy="223.5" r="40"/><circle class="cls-3" cx="243.5" cy="143.5" r="20"/><circle class="cls-4" cx="403.5" cy="223.5" r="80"/><path class="cls-5" d="M225.48,203.5c-2-.11-22.24-.19-22,20,.25,20,20,20,20,20H350.72a29.87,29.87,0,0,1,19.91,7.74c6.8,6.1,12.87,12.15,32.87,12.26s40-17.66,40-40c0-20.11-20-40.11-40-40s-26.06,6.17-32.87,12.26a29.87,29.87,0,0,1-19.91,7.74Z"/><circle class="cls-3" cx="403.5" cy="223.5" r="20"/><path class="cls-6" d="M63.5,303.5s40,0,40,40-40,40-40,40h-20s-40,0-40-40,40-40,40-40Z"/><path class="cls-6" d="M263.5,303.5s40,0,40,40-40,40-40,40h-20s-40,0-40-40,40-40,40-40Z"/><path class="cls-6" d="M63.5,3.5s40,0,40,40-40,40-40,40h-20s-40,0-40-40,40-40,40-40Z"/><path class="cls-6" d="M263.5,3.5s40,0,40,40-40,40-40,40h-20s-40,0-40-40,40-40,40-40Z"/><rect class="cls-7" x="243.5" y="83.5" width="20" height="20"/><rect class="cls-7" x="243.5" y="283.5" width="20" height="20"/><rect class="cls-8" x="43.5" y="283.5" width="20" height="20"/><rect class="cls-9" x="43.5" y="83.5" width="20" height="20"/><polygon class="cls-10" points="163.5 184.75 163.5 143.5 143.5 123.5 43.5 123.5 23.5 143.5 23.5 243.5 43.5 263.5 143.5 263.5 163.5 243.5 163.5 184.75"/><path class="cls-11" d="M163.5,143.5"/><line class="cls-11" x1="23.5" y1="143.5" x2="163.5" y2="143.5"/><line class="cls-11" x1="23.5" y1="163.5" x2="163.5" y2="163.5"/><line class="cls-11" x1="23.5" y1="183.5" x2="163.5" y2="184.75"/><line class="cls-11" x1="23.5" y1="203.5" x2="163.5" y2="203.5"/><line class="cls-11" x1="23.5" y1="223.5" x2="163.5" y2="223.5"/><line class="cls-11" x1="23.5" y1="243.5" x2="163.5" y2="243.5"/><line class="cls-11" x1="83.5" y1="123.5" x2="83.5" y2="263.5"/><line class="cls-11" x1="103.5" y1="123.5" x2="103.5" y2="263.5"/><line class="cls-11" x1="123.5" y1="123.5" x2="123.5" y2="263.5"/><line class="cls-11" x1="143.5" y1="123.5" x2="143.5" y2="263.5"/><line class="cls-11" x1="63.5" y1="123.5" x2="63.5" y2="263.5"/><line class="cls-11" x1="43.5" y1="123.5" x2="43.5" y2="263.5"/></g></g></svg>